<?xml version="1.0" encoding="UTF-8" standalone="no"?>
<!-- Created with Inkscape (http://www.inkscape.org/) -->

<svg
   width="67.049004mm"
   height="43.493999mm"
   viewBox="0 0 67.049004 43.493999"
   version="1.1"
   xmlns="http://www.w3.org/2000/svg"
   xmlns:svg="http://www.w3.org/2000/svg">
  <g>
    <g transform="translate(-47.48388,-119.0625)">
      <g
         aria-label="SCHEME.WASM"
         style="fill:#393939;stroke:none">
        <path
           d="m 51.787654,160.60597 q 0,0.60225 -0.301126,1.03309 -0.296492,0.42621 -0.838517,0.65321 -0.542026,0.227 -1.28789,0.227 -0.375248,0 -0.718067,-0.0417 -0.338187,-0.0371 -0.630047,-0.11118 -0.29186,-0.0741 -0.528127,-0.18531 v -0.89875 q 0.384514,0.15752 0.889477,0.2965 0.504964,0.13435 1.042357,0.13435 0.467902,0 0.782925,-0.12509 0.319656,-0.12971 0.4818,-0.36135 0.162145,-0.23163 0.162145,-0.55592 0,-0.32429 -0.157512,-0.54203 -0.157512,-0.22237 -0.500331,-0.40767 -0.338187,-0.18531 -0.889477,-0.39378 -0.384514,-0.13898 -0.699537,-0.31503 -0.315024,-0.18067 -0.546658,-0.41231 -0.227002,-0.23163 -0.352085,-0.54202 -0.125083,-0.31502 -0.125083,-0.7227 0,-0.56056 0.273329,-0.95897 0.277962,-0.39841 0.77366,-0.60688 0.495698,-0.21311 1.148909,-0.21311 0.537392,0 1.000662,0.10656 0.467902,0.10655 0.889477,0.29186 l -0.301125,0.78755 q -0.393779,-0.16214 -0.792191,-0.26406 -0.398412,-0.10192 -0.82462,-0.10192 -0.393779,0 -0.667108,0.11582 -0.268696,0.11582 -0.41231,0.32892 -0.13898,0.2131 -0.13898,0.50496 0,0.32892 0.148246,0.54666 0.148246,0.21774 0.467902,0.39378 0.319656,0.17604 0.833885,0.37525 0.579087,0.22237 0.982131,0.47253 0.407678,0.25017 0.620782,0.60225 0.213104,0.35209 0.213104,0.88948 z"
           />
        <path
           d="m 56.017304,156.37632 q -0.523494,0 -0.940437,0.18531 -0.41231,0.18067 -0.699537,0.53276 -0.287227,0.34745 -0.440106,0.83852 -0.152879,0.49106 -0.152879,1.10721 0,0.81999 0.240901,1.41761 0.245532,0.59761 0.736598,0.9219 0.491066,0.32429 1.23693,0.32429 0.444738,0 0.847783,-0.0788 0.407677,-0.0834 0.810721,-0.2131 v 0.81535 q -0.389146,0.14825 -0.806088,0.21774 -0.41231,0.0741 -0.968234,0.0741 -1.037723,0 -1.727995,-0.43084 -0.685639,-0.43084 -1.023826,-1.20913 -0.338186,-0.78293 -0.338186,-1.84381 0,-0.76903 0.213104,-1.40371 0.213104,-0.63931 0.625413,-1.10258 0.41231,-0.4679 1.009928,-0.71807 0.60225,-0.2548 1.385176,-0.2548 0.509596,0 0.991397,0.11119 0.486433,0.10655 0.89411,0.30112 l -0.352085,0.79219 q -0.338187,-0.15287 -0.727333,-0.26869 -0.384514,-0.11582 -0.815355,-0.11582 z"
           />
        <path
           d="m 64.360788,162.42662 h -0.949703 v -3.12707 h -3.340173 v 3.12707 H 59.12121 v -6.773 h 0.949702 v 2.82594 h 3.340173 v -2.82594 h 0.949703 z"
           />
        <path
           d="m 69.984881,162.42662 h -3.803443 v -6.773 h 3.803443 v 0.81535 h -2.85374 v 2.01523 h 2.68233 v 0.80609 h -2.68233 v 2.31634 h 2.85374 z"
           />
        <path
           d="m 74.413738,162.42662 -2.112509,-5.8233 h -0.03706 q 0.0139,0.18994 0.0278,0.49107 0.01853,0.29649 0.0278,0.64858 0.0139,0.34745 0.0139,0.68563 v 3.99802 h -0.870947 v -6.773 h 1.366645 l 2.005957,5.51754 h 0.03243 l 2.056917,-5.51754 h 1.357379 v 6.773 h -0.917273 v -4.05361 q 0,-0.30576 0.0093,-0.63468 0.0093,-0.33355 0.02316,-0.63004 0.01853,-0.30113 0.03243,-0.4957 h -0.04169 l -2.163469,5.81403 z"
           />
        <path
           d="m 83.901495,162.42662 h -3.803442 v -6.773 h 3.803442 v 0.81535 h -2.85374 v 2.01523 h 2.682331 v 0.80609 h -2.682331 v 2.31634 h 2.85374 z"
           />
        <path
           d="m 85.166222,161.94482 q 0,-0.32429 0.157511,-0.45864 0.157512,-0.13898 0.384514,-0.13898 0.236267,0 0.398412,0.13898 0.162144,0.13435 0.162144,0.45864 0,0.31966 -0.162144,0.4679 -0.162145,0.14362 -0.398412,0.14362 -0.227002,0 -0.384514,-0.14362 -0.157511,-0.14824 -0.157511,-0.4679 z"
           />
        <path
           d="m 95.585153,155.65362 -1.811384,6.773 h -0.792191 l -1.343482,-4.55857 q -0.06023,-0.19457 -0.115817,-0.38915 -0.05096,-0.1992 -0.09729,-0.37525 -0.04633,-0.18067 -0.07876,-0.31502 -0.0278,-0.13898 -0.0417,-0.20847 -0.0093,0.0695 -0.03706,0.20384 -0.02316,0.13435 -0.06486,0.31039 -0.03706,0.17604 -0.09265,0.37525 -0.05096,0.1992 -0.111185,0.40304 l -1.30642,4.55394 h -0.79219 l -1.797486,-6.773 h 0.819987 l 1.088683,4.24818 q 0.05559,0.21311 0.10192,0.42158 0.05096,0.20384 0.08802,0.39841 0.04169,0.19457 0.07412,0.37988 0.03243,0.18531 0.06022,0.36135 0.02316,-0.18068 0.06023,-0.37525 0.03706,-0.1992 0.07876,-0.40304 0.04633,-0.20384 0.09729,-0.41231 0.05559,-0.20847 0.115818,-0.41695 l 1.218399,-4.20185 h 0.810721 l 1.269359,4.23428 q 0.06486,0.21774 0.12045,0.43084 0.05559,0.21311 0.09729,0.41695 0.04633,0.1992 0.07876,0.38451 0.03706,0.18068 0.06486,0.34282 0.03243,-0.227 0.07876,-0.47717 0.04633,-0.25016 0.106552,-0.52349 0.06486,-0.27333 0.13898,-0.56519 l 1.088684,-4.24355 z"
           />
        <path
           d="m 100.89885,162.42662 -0.83388,-2.14957 h -2.714761 l -0.829253,2.14957 h -0.796823 l 2.649901,-6.8008 h 0.708802 l 2.631374,6.8008 z m -1.07015,-2.84911 -0.79219,-2.13567 q -0.0278,-0.0834 -0.09265,-0.27333 -0.06023,-0.18994 -0.125083,-0.39378 -0.06486,-0.20384 -0.106552,-0.32892 -0.04633,0.18994 -0.101919,0.37988 -0.05096,0.18531 -0.10192,0.34745 -0.05096,0.15752 -0.08802,0.2687 l -0.806089,2.13567 z"
           />
        <path
           d="m 106.47199,160.6245 q 0,0.60225 -0.30113,1.02846 -0.29649,0.42158 -0.83389,0.64395 -0.53739,0.22236 -1.26472,0.22236 -0.38451,0 -0.72733,-0.0371 -0.34282,-0.0371 -0.63005,-0.10655 -0.28723,-0.0695 -0.50496,-0.17141 v -0.75513 q 0.34745,0.14362 0.84778,0.2687 0.50033,0.12045 1.04699,0.12045 0.50959,0 0.86168,-0.13435 0.35208,-0.13898 0.53276,-0.39378 0.18531,-0.25943 0.18531,-0.62078 0,-0.34745 -0.15288,-0.57909 -0.15288,-0.23626 -0.5096,-0.42621 -0.35208,-0.19457 -0.9636,-0.4123 -0.43084,-0.15288 -0.75976,-0.33356 -0.32892,-0.18531 -0.55129,-0.41694 -0.22237,-0.23164 -0.33819,-0.53739 -0.11118,-0.30576 -0.11118,-0.69954 0,-0.54203 0.27333,-0.92654 0.27796,-0.38915 0.76439,-0.59299 0.49107,-0.20847 1.12575,-0.20847 0.54202,0 1.00066,0.10192 0.46327,0.10192 0.84778,0.27333 l -0.24553,0.67638 q -0.36598,-0.15288 -0.77829,-0.2548 -0.40768,-0.10192 -0.84316,-0.10192 -0.43547,0 -0.73659,0.12971 -0.2965,0.12509 -0.45401,0.35672 -0.15751,0.23164 -0.15751,0.55129 0,0.35672 0.14825,0.59299 0.15288,0.23626 0.4818,0.42157 0.33355,0.18068 0.88021,0.37988 0.59762,0.21774 1.01456,0.46327 0.41694,0.2409 0.63468,0.59299 0.21774,0.34745 0.21774,0.88484 z"
           />
        <path
           d="m 110.83135,162.42662 -2.27465,-5.99471 h -0.0371 q 0.0185,0.18994 0.0324,0.46327 0.0139,0.27333 0.0232,0.59762 0.009,0.31966 0.009,0.65321 v 4.28061 h -0.73197 v -6.773 h 1.16744 l 2.14494,5.63336 h 0.0324 l 2.17736,-5.63336 h 1.15818 v 6.773 h -0.7783 v -4.3362 q 0,-0.30113 0.009,-0.60225 0.009,-0.30576 0.0232,-0.57446 0.0139,-0.27333 0.0278,-0.47253 h -0.0371 l -2.30245,5.98544 z"
           />
      </g>
      <g
         id="g71283">
        <path
           style="fill:#ca4ff0;stroke:none;"
           d="m 66.008469,132.07254 v 16.98978 h 29.999818 v -16.98978 z m 9.372475,2.43084 c 0.528065,0 0.960876,0.10111 1.298025,0.30373 0.337152,0.20262 0.613296,0.49938 0.828583,0.89014 0.219352,0.38595 0.412183,0.85374 0.578727,1.40372 l 1.712059,5.58665 c 0.125923,0.41007 0.243821,0.72148 0.353497,0.93376 0.109675,0.20744 0.219191,0.3473 0.328866,0.41967 0.109676,0.0724 0.223381,0.10826 0.341182,0.10826 0.06093,0 0.128003,-0.007 0.201116,-0.0216 0.07312,-0.0145 0.14647,-0.0315 0.219588,-0.0508 v 1.70796 c -0.06499,0.0386 -0.162452,0.0745 -0.292441,0.10825 -0.129984,0.0338 -0.266219,0.0607 -0.408392,0.08 -0.142172,0.0193 -0.265838,0.0287 -0.37145,0.0287 -0.33715,0 -0.619579,-0.0676 -0.847053,-0.20266 -0.223412,-0.13507 -0.408378,-0.3255 -0.554612,-0.57154 -0.146233,-0.25087 -0.2699,-0.54054 -0.37145,-0.8686 l -0.584882,-1.96808 c -0.04875,-0.1592 -0.0959,-0.31609 -0.140577,-0.47047 -0.04062,-0.1592 -0.08097,-0.31138 -0.121594,-0.4561 -0.04062,-0.14956 -0.0773,-0.28942 -0.109794,-0.41968 -0.02843,-0.13509 -0.05463,-0.25557 -0.07901,-0.36171 h -0.03643 c -0.06093,0.26051 -0.134287,0.54261 -0.219588,0.84654 -0.08124,0.30394 -0.16246,0.5766 -0.2437,0.81781 l -1.254932,3.50981 h -1.925493 l 2.881827,-7.64913 -0.21343,-0.66594 c -0.174669,-0.51138 -0.361217,-0.83695 -0.560255,-0.97686 -0.19904,-0.1399 -0.465226,-0.20984 -0.798314,-0.20984 -0.113737,0 -0.225348,0.01 -0.335024,0.0292 -0.109673,0.0193 -0.205043,0.041 -0.286283,0.0652 V 134.626 c 0.07718,-0.0241 0.17464,-0.043 0.29244,-0.0575 0.121862,-0.0193 0.247622,-0.034 0.377608,-0.0436 0.129984,-0.0145 0.243692,-0.0216 0.341182,-0.0216 z m 5.928853,0.7742 h 1.858283 l 1.139493,5.77442 c 0.0325,0.17367 0.06866,0.38112 0.109279,0.62234 0.04469,0.24122 0.08764,0.49449 0.128266,0.75983 0.04468,0.26051 0.08294,0.51379 0.115436,0.75983 0.03655,0.24122 0.06327,0.45102 0.07952,0.62952 0.02031,-0.18332 0.04651,-0.39549 0.07901,-0.6367 0.0325,-0.24604 0.06708,-0.4946 0.103637,-0.74547 0.04062,-0.25569 0.08148,-0.49194 0.122105,-0.70904 0.04062,-0.2171 0.07678,-0.39337 0.109282,-0.52845 l 1.298026,-5.92628 h 1.785429 l 1.297514,5.92628 c 0.02844,0.13026 0.06092,0.30653 0.09748,0.52845 0.04062,0.2171 0.08149,0.45335 0.122108,0.70904 0.04062,0.25568 0.07729,0.50661 0.109794,0.75265 0.03655,0.24122 0.06275,0.45102 0.07901,0.62952 0.02843,-0.24122 0.06721,-0.53274 0.115949,-0.87527 0.05281,-0.34735 0.107314,-0.6923 0.164177,-1.03483 0.06094,-0.34253 0.113855,-0.62986 0.158535,-0.86142 l 1.133336,-5.77442 h 1.858283 l -2.266672,10.57969 h -2.150723 l -1.206706,-5.55792 c -0.02437,-0.10613 -0.05686,-0.26774 -0.09748,-0.48484 -0.04062,-0.21709 -0.08306,-0.45335 -0.127751,-0.70904 -0.04468,-0.26051 -0.08504,-0.50384 -0.121593,-0.73059 -0.0325,-0.23156 -0.05503,-0.41491 -0.06721,-0.54999 -0.01219,0.13508 -0.03681,0.31556 -0.07336,0.5423 -0.0325,0.22675 -0.07076,0.46823 -0.115439,0.72392 -0.04062,0.25568 -0.08149,0.4943 -0.122106,0.71622 -0.04062,0.22192 -0.07311,0.39112 -0.09748,0.5069 l -1.200034,5.54304 h -2.14508 z" />
        <path
           style="fill:#654ff0;stroke:none;"
           d="m 249.48047,450 v 49.17181 H 362.86719 V 450 h -42.65625 c -0.008,7.23127 -5.87418,13.0918 -13.10742,13.0918 -7.23325,0 -13.097,-5.86054 -13.10547,-13.0918 z"
           transform="scale(0.26458333)" />
      </g>
    </g>
  </g>
</svg>
